# Blender 4.1.0
# www.blender.org
o bunny
v -13.731716 2.396330 0.594713
v -15.017617 0.715306 0.868843
v -14.819285 2.858004 0.233503
v -14.151926 0.926756 0.908727
v -14.387092 0.720044 1.039153
v -15.534329 2.425595 0.062512
v -14.521204 0.988436 0.701039
v -15.294657 2.818415 -0.065224
v -13.716045 1.283603 1.084619
v -14.999058 2.868551 0.613243
v -14.920046 2.249390 -0.269202
v -15.237702 2.283845 1.068134
v -14.792654 2.660213 -0.001857
v -13.710449 2.481787 0.068989
v -15.206984 1.971179 0.757548
v -15.280350 1.535595 -0.314748
v -15.574597 1.899463 0.422739
v -14.250060 1.693204 1.071169
v -14.481179 1.784469 0.814527
v -13.669865 1.937149 0.838216
v -15.056728 2.869298 0.064976
v -13.240679 0.856947 0.690226
v -14.060778 3.014575 -0.257408
v -13.062853 1.994283 0.499534
v -12.856168 1.409009 0.267157
v -15.539494 2.810524 0.380937
v -15.562451 2.150399 0.808960
v -15.183869 3.385900 -1.085242
v -13.361344 1.960924 -0.316021
v -13.072414 1.378983 -0.210661
v -14.442863 1.821603 -0.485359
v -14.573635 2.359649 0.323327
v -14.132185 3.500973 -0.437236
v -15.259760 0.681700 0.009715
v -14.789256 0.966575 0.297643
v -14.655078 0.629316 -0.470237
v -15.125426 2.828032 -0.953498
v -14.624368 1.038584 -0.183984
v -14.310306 1.626689 -0.790128
v -15.359825 1.270888 0.165266
v -13.449890 0.960636 -0.480196
v -15.089770 2.617213 -0.168958
v -14.211917 0.896972 -0.597481
v -13.639132 0.627985 -0.355883
v -14.464862 0.692963 -0.333716
v -13.773752 0.634215 0.149997
v -13.460295 0.641696 0.142002
v -14.565205 0.656052 -0.129800
v -12.792789 0.869879 0.010974
v -14.899623 0.630355 0.308657
v -14.619205 0.622644 -0.026943
v -14.687139 0.636310 0.156194
v -14.459191 0.713644 -0.007793
v -13.581953 0.566401 0.416855
v -14.382699 0.693760 0.313306
v -14.935920 1.434950 0.837317
v -13.679462 0.700684 0.630088
v -14.525119 0.689925 0.586800
v -14.195393 0.723214 0.749334
v -14.341812 0.648858 0.819947
vn -0.0926 0.9952 -0.0332
vn 0.8069 0.4410 -0.3929
vn -0.8216 0.3567 -0.4446
vn 0.2294 0.3291 0.9160
vn -0.0458 0.1243 0.9912
vn 0.1484 -0.5771 0.8031
vn 0.1100 0.6556 0.7470
vn 0.1621 -0.1473 0.9757
vn -0.2690 0.6001 0.7533
vn -0.4103 0.8838 0.2248
vn -0.1985 -0.2275 0.9533
vn -0.1112 0.4539 0.8841
vn -0.3017 0.8235 0.4803
vn 0.7164 0.2221 0.6614
vn 0.6770 -0.4841 0.5543
vn 0.4458 0.2880 0.8475
vn 0.3955 0.4713 0.7883
vn 0.7425 -0.0038 0.6699
vn 0.7906 -0.5502 -0.2688
vn -0.0557 -0.8730 0.4846
vn 0.8255 -0.1602 0.5413
vn 0.6516 0.0252 0.7581
vn 0.4508 0.3670 0.8137
vn -0.0938 -0.9955 0.0131
vn 0.5096 -0.6294 0.5866
vn 0.9954 -0.0708 -0.0643
vn -0.0709 -0.9927 0.0975
vn 0.1037 0.3770 0.9204
vn -0.9394 -0.2098 -0.2713
vn 0.7947 -0.5455 -0.2663
vn -0.1041 -0.9902 -0.0926
vn -0.9247 0.2957 -0.2396
vn 0.9937 0.0874 -0.0706
vn 0.8673 0.3704 -0.3326
vn 0.8355 -0.3704 0.4058
vn 0.8557 0.0685 -0.5130
vn -0.0932 0.9833 0.1561
vn -0.2220 0.9747 0.0247
vn -0.9976 0.0357 -0.0594
vn 0.0503 0.9987 -0.0039
vn 0.7803 0.6234 0.0507
vn 0.6891 0.6685 -0.2796
vn 0.5251 0.8364 0.1572
vn -0.3723 -0.1791 -0.9107
vn -0.4004 0.8185 0.4119
vn -0.7625 -0.2261 0.6062
vn -0.5002 -0.0975 0.8604
vn -0.3554 0.6600 0.6619
vn -0.6354 -0.2107 0.7428
vn -0.2539 0.7060 0.6611
vn -0.5921 -0.6813 0.4304
vn -0.8798 -0.4745 -0.0277
vn -0.1767 0.8663 0.4672
vn -0.6651 0.4224 0.6158
vn 0.0446 0.6130 -0.7889
vn -0.9715 -0.1459 -0.1867
vn -0.7265 -0.2653 -0.6338
vn -0.7298 -0.6678 -0.1463
vn -0.9047 0.0468 -0.4234
vn -0.9992 0.0388 0.0062
vn -0.4927 -0.8678 0.0636
vn -0.6036 0.2232 0.7654
vn -0.7565 0.4142 -0.5062
vn -0.0225 0.8378 -0.5456
vn -0.4645 -0.7407 -0.4854
vn -0.4587 -0.0090 -0.8885
vn -0.4988 0.8657 -0.0414
vn -0.5101 0.5183 -0.6864
vn 0.4318 0.0514 -0.9005
vn -0.0111 -0.9902 0.1393
vn 0.8631 0.2959 -0.4092
vn 0.1523 -0.9862 0.0655
vn 0.1242 -0.9850 0.1196
vn 0.3126 0.6238 -0.7163
vn -0.1646 0.9826 -0.0866
vn 0.4017 0.4087 -0.8195
vn 0.1237 0.5540 -0.8233
vn -0.4697 0.0238 -0.8825
vn -0.5027 0.5205 -0.6902
vn -0.0363 -0.4156 -0.9088
vn -0.5206 -0.4548 -0.7225
vn 0.4451 0.1654 -0.8801
vn 0.1668 -0.2306 -0.9586
vn -0.0735 -0.3433 -0.9363
vn -0.2581 0.1907 -0.9471
vn 0.1021 -0.3987 -0.9114
vn 0.1690 -0.6372 -0.7519
vn -0.1463 -0.3619 -0.9207
vn 0.1994 -0.7855 0.5859
vn 0.2173 -0.8162 0.5353
vn 0.2984 -0.9459 -0.1270
vn -0.3223 -0.7892 0.5229
vn 0.4713 -0.8312 0.2950
vn -0.0787 -0.9969 -0.0087
vn -0.2526 -0.6943 0.6739
vn 0.0855 -0.9959 0.0305
vn -0.6943 -0.4629 0.5510
vn -0.4039 -0.8743 -0.2690
vn -0.1132 -0.9930 -0.0342
vn -0.5857 -0.7793 0.2229
vn -0.4962 -0.7179 0.4882
vn 0.0243 -0.9995 0.0188
vn 0.0374 -0.9992 0.0131
vn 0.3004 -0.9535 0.0260
vn -0.8600 0.3741 -0.3469
vn 0.8925 -0.2043 0.4022
vn 0.2441 0.3034 0.9211
vn 0.2132 -0.9154 0.3413
vn 0.4321 -0.9005 0.0496
vn 0.0396 -0.9866 0.1580
s 0
f 8//1 26//1 10//1
f 30//2 24//2 25//2
f 6//3 26//3 8//3
f 9//4 20//4 18//4
f 56//5 19//5 15//5
f 4//6 22//6 9//6
f 19//7 32//7 15//7
f 7//8 19//8 56//8
f 19//9 1//9 32//9
f 2//10 7//10 35//10
f 4//11 9//11 18//11
f 20//12 1//12 19//12
f 3//13 33//13 21//13
f 12//14 32//14 10//14
f 12//15 15//15 32//15
f 24//16 20//16 9//16
f 24//17 1//17 20//17
f 25//18 24//18 22//18
f 44//19 41//19 47//19
f 44//20 45//20 36//20
f 49//21 25//21 22//21
f 22//22 24//22 9//22
f 23//23 33//23 3//23
f 46//24 55//24 45//24
f 13//25 23//25 3//25
f 37//26 21//26 42//26
f 46//27 59//27 55//27
f 7//28 2//28 60//28
f 40//29 17//29 16//29
f 41//30 30//30 47//30
f 58//31 60//31 2//31
f 2//32 35//32 50//32
f 21//33 37//33 28//33
f 30//34 29//34 24//34
f 10//35 13//35 3//35
f 11//36 13//36 32//36
f 14//37 32//37 1//37
f 8//38 10//38 21//38
f 17//39 26//39 6//39
f 21//40 10//40 3//40
f 13//41 10//41 32//41
f 29//42 14//42 24//42
f 14//43 1//43 24//43
f 13//44 21//44 33//44
f 8//45 21//45 28//45
f 19//46 4//46 18//46
f 19//47 7//47 4//47
f 26//48 12//48 10//48
f 56//49 15//49 17//49
f 5//50 4//50 7//50
f 35//51 7//51 56//51
f 60//52 5//52 7//52
f 19//53 18//53 20//53
f 12//54 26//54 27//54
f 14//55 29//55 31//55
f 37//56 8//56 28//56
f 39//57 43//57 38//57
f 37//58 42//58 8//58
f 39//59 38//59 31//59
f 27//60 26//60 17//60
f 55//61 53//61 45//61
f 50//62 35//62 34//62
f 17//63 11//63 16//63
f 31//64 29//64 39//64
f 38//65 40//65 16//65
f 6//66 8//66 42//66
f 35//67 38//67 34//67
f 38//68 43//68 36//68
f 29//69 30//69 39//69
f 57//70 59//70 46//70
f 25//71 49//71 30//71
f 55//72 58//72 52//72
f 55//73 52//73 51//73
f 13//74 42//74 21//74
f 32//75 14//75 11//75
f 13//76 11//76 42//76
f 11//77 14//77 31//77
f 6//78 42//78 11//78
f 36//79 34//79 38//79
f 47//80 30//80 49//80
f 17//81 6//81 11//81
f 41//82 39//82 30//82
f 41//83 43//83 39//83
f 38//84 16//84 31//84
f 16//85 11//85 31//85
f 44//86 36//86 41//86
f 41//87 36//87 43//87
f 13//88 33//88 23//88
f 54//89 22//89 57//89
f 22//90 60//90 57//90
f 49//91 54//91 47//91
f 15//92 27//92 17//92
f 49//93 22//93 54//93
f 44//94 46//94 45//94
f 15//95 12//95 27//95
f 59//96 58//96 55//96
f 56//97 17//97 40//97
f 38//98 35//98 40//98
f 36//99 50//99 34//99
f 54//100 57//100 46//100
f 35//101 56//101 40//101
f 44//102 47//102 46//102
f 36//103 52//103 50//103
f 52//104 36//104 45//104
f 51//105 52//105 45//105
f 48//106 51//106 45//106
f 22//107 4//107 5//107
f 22//108 5//108 60//108
f 45//109 53//109 48//109
f 2//110 50//110 58//110
