# Blender 4.1.0
# www.blender.org
o Plane.002
v 6.357522 0.000000 0.500000
v 8.357521 0.000000 0.500000
v 6.357522 0.000000 -0.500000
v 8.357521 0.000000 -0.500000
v 7.357522 1.000000 0.500000
v 7.357522 1.000000 -0.500000
v 7.357522 1.000000 0.500000
v 7.357522 1.000000 -0.500000
vn 0.7071 0.7071 -0.0000
vn -0.0000 -1.0000 -0.0000
vn -0.0000 1.0000 -0.0000
vn -0.7071 0.7071 -0.0000
vn -0.0000 -0.0000 1.0000
vn -0.0000 -0.0000 -1.0000
s 0
f 4//1 8//1 7//1 2//1
f 1//2 3//2 4//2 2//2
f 5//3 6//3 8//3 7//3
f 1//4 7//4 8//4 3//4
f 2//5 7//5 1//5
f 8//6 4//6 3//6
